<?xml version="1.0" standalone="no"?><!DOCTYPE svg PUBLIC "-//W3C//DTD SVG 1.1//EN" "http://www.w3.org/Graphics/SVG/1.1/DTD/svg11.dtd"><svg t="1637727126406" class="icon" viewBox="0 0 1024 1024" version="1.1" xmlns="http://www.w3.org/2000/svg" p-id="1888" xmlns:xlink="http://www.w3.org/1999/xlink" width="48" height="48"><defs><style type="text/css"></style></defs><path d="M813.653333 210.346667C734.72 128 625.493333 83.626667 512 85.333333c-113.493333-1.706667-222.293333 42.666667-301.226667 125.013334C128 289.28 83.626667 398.506667 85.333333 512c-1.706667 113.493333 42.666667 222.293333 125.013334 301.226667C289.28 896 398.506667 940.373333 512 938.666667c113.493333 1.706667 222.293333-42.666667 301.226667-125.013334C896 734.72 940.373333 625.493333 938.666667 512c1.706667-113.493333-42.666667-222.72-125.013334-301.653333M725.333333 512v256h-149.333333v-213.333333h-128v213.333333H298.666667v-256H213.333333l298.666667-298.666667 320 298.666667H725.333333z" fill="#ffffff" p-id="1889"></path></svg>